<?xml version="1.0" standalone="no"?>
<!DOCTYPE svg PUBLIC "-//W3C//DTD SVG 20010904//EN"
 "http://www.w3.org/TR/2001/REC-SVG-20010904/DTD/svg10.dtd">
<svg version="1.0" xmlns="http://www.w3.org/2000/svg"
 width="259.000000pt" height="259.000000pt" viewBox="0 0 259.000000 259.000000"
 preserveAspectRatio="xMidYMid meet">
<metadata>
Created by potrace 1.16, written by Peter Selinger 2001-2019
</metadata>
<g transform="translate(0.000000,259.000000) scale(0.100000,-0.100000)"
fill="#000000" stroke="none">
<path d="M1360 2313 c-32 -12 -54 -41 -101 -135 -27 -54 -51 -98 -54 -98 -2 0
-39 11 -80 25 -42 13 -114 30 -161 37 -100 14 -139 6 -139 -32 0 -23 5 -25
100 -40 55 -9 130 -27 168 -40 57 -20 67 -27 67 -47 0 -75 57 -133 132 -133
74 0 105 21 138 94 26 57 34 65 79 85 27 11 100 30 162 40 121 20 144 34 106
65 -19 16 -33 17 -92 12 -38 -3 -95 -12 -125 -21 -30 -8 -55 -13 -57 -12 -1 2
5 23 13 47 30 86 -17 161 -100 159 -22 0 -48 -3 -56 -6z m69 -87 c9 -10 -1
-45 -41 -150 -42 -110 -56 -138 -74 -142 -26 -7 -64 11 -64 30 0 12 96 204
127 254 15 25 35 28 52 8z"/>
<path d="M533 2133 c-17 -6 -16 -56 2 -99 8 -19 39 -61 70 -93 l55 -58 -59
-46 c-62 -49 -140 -141 -184 -217 -157 -272 -139 -661 44 -935 52 -77 177
-203 231 -231 l33 -18 -77 -13 c-114 -19 -153 -34 -153 -58 0 -26 67 -49 206
-69 407 -59 951 -54 1287 14 190 38 181 82 -25 113 l-78 12 45 27 c55 33 149
123 190 183 52 75 109 205 136 310 21 81 26 125 27 230 2 144 -9 209 -55 327
-42 110 -112 211 -206 299 l-82 76 51 52 c76 79 108 163 74 191 -12 10 -31 6
-101 -19 -48 -18 -149 -47 -225 -66 -77 -18 -163 -45 -191 -59 l-53 -26 140 4
c114 3 156 8 223 28 45 14 82 22 82 17 0 -13 -72 -68 -120 -92 -36 -17 -63
-22 -130 -22 -47 0 -105 3 -130 7 -47 8 -45 6 50 -32 59 -24 177 -97 198 -122
7 -10 9 -19 4 -22 -17 -10 -158 32 -233 69 -40 21 -91 44 -112 51 l-39 14 37
-41 c20 -23 45 -60 56 -83 19 -42 26 -136 10 -136 -13 0 -177 146 -202 179
l-21 28 -91 -94 c-51 -52 -101 -109 -111 -125 l-20 -31 -9 24 c-24 64 11 179
76 248 31 32 31 33 7 26 -14 -4 -56 -23 -95 -42 -119 -60 -275 -113 -275 -93
0 14 92 90 145 121 28 16 74 36 103 45 30 9 52 17 50 19 -2 2 -39 -1 -83 -7
-104 -13 -175 -5 -239 26 -52 26 -141 106 -101 92 11 -4 63 -18 115 -32 80
-21 115 -24 210 -22 l115 3 -50 23 c-27 13 -97 35 -155 49 -58 13 -160 42
-226 64 -67 21 -123 39 -125 38 -2 0 -10 -3 -16 -6z m275 -318 c23 -7 22 -8
-16 -41 -67 -57 -82 -130 -31 -148 24 -8 122 15 214 50 11 5 15 -1 15 -23 0
-28 -3 -30 -60 -41 -286 -53 -429 -344 -324 -661 43 -132 139 -271 226 -328
39 -26 50 -59 23 -69 -8 -3 -36 10 -63 29 -162 119 -275 323 -289 523 -6 86
-17 109 -47 98 -23 -9 -21 -130 3 -226 19 -73 74 -195 112 -250 23 -32 24 -51
3 -46 -9 2 -35 35 -58 73 -197 327 -158 729 95 975 52 49 138 101 159 96 8 -3
25 -7 38 -11z m961 -290 c95 -25 162 -65 242 -144 253 -252 202 -619 -119
-848 -89 -64 -150 -85 -247 -85 -232 0 -449 173 -510 407 -20 78 -19 216 1
286 70 235 274 398 499 399 44 0 104 -7 134 -15z"/>
<path d="M1681 1276 c-6 -7 -29 -57 -51 -110 -21 -53 -48 -108 -59 -122 -30
-38 -27 -80 8 -115 38 -37 79 -38 121 -2 31 25 32 29 27 81 -5 45 0 67 28 140
31 80 32 89 19 114 -12 22 -22 28 -48 28 -18 0 -39 -6 -45 -14z"/>
</g>
</svg>
